<svg width="32" height="32" viewBox="0 0 32 32" fill="none" xmlns="http://www.w3.org/2000/svg">
<g clip-path="url(#clip0_148_1422)">
<path d="M25.563 32.002C24.1463 32.002 22.688 31.804 21.188 31.408C19.688 31.012 18.1567 30.4183 16.594 29.627C15.8853 29.2517 15.177 28.8453 14.469 28.408C13.761 27.9707 13.063 27.4967 12.375 26.986C11.687 26.4753 11.01 25.9283 10.344 25.345C9.67733 24.7823 9.03133 24.1887 8.406 23.564C7.78067 22.9393 7.187 22.2933 6.625 21.626C6.063 20.9587 5.52667 20.2817 5.016 19.595C4.50533 18.9083 4.03133 18.2103 3.594 17.501C3.13533 16.7923 2.729 16.084 2.375 15.376C1.583 13.8133 0.989333 12.282 0.594 10.782C0.198667 9.282 0.000666667 7.82367 0 6.407C0 5.49033 0.312667 4.631 0.938 3.829C1.56333 3.027 2.06333 2.45933 2.438 2.126C2.95867 1.626 3.594 1.14667 4.344 0.688C5.094 0.229333 5.771 0 6.375 0C6.667 0 6.995 0.099 7.359 0.297C7.723 0.495 8.13433 0.812667 8.593 1.25C8.92633 1.56267 9.28067 1.92733 9.656 2.344C10.0313 2.76067 10.4167 3.219 10.812 3.719C11.0413 4.011 11.557 4.75067 12.359 5.938C13.161 7.12533 13.562 8.08367 13.562 8.813C13.562 9.39633 13.2807 9.912 12.718 10.36C12.1553 10.808 11.5093 11.261 10.78 11.719L9.967 12.219C9.967 12.219 9.72733 12.3857 9.248 12.719C9.01867 12.9063 8.87267 13.047 8.81 13.141C8.74733 13.235 8.716 13.2923 8.716 13.313C9.09133 14.2503 9.64333 15.2297 10.372 16.251C11.1007 17.2723 11.9237 18.236 12.841 19.142C13.7583 20.048 14.7167 20.8657 15.716 21.595C16.7367 22.3243 17.716 22.8763 18.654 23.251C18.6747 23.251 18.732 23.2197 18.826 23.157C18.92 23.0943 19.0607 22.9483 19.248 22.719C19.4147 22.5103 19.5813 22.2707 19.748 22L20.248 21.187C20.7067 20.4577 21.1597 19.8117 21.607 19.249C22.0543 18.6863 22.57 18.405 23.154 18.405C23.8833 18.405 24.8417 18.806 26.029 19.608C27.2163 20.41 27.956 20.9257 28.248 21.155C28.748 21.551 29.2063 21.9363 29.623 22.311C30.0397 22.6857 30.4043 23.04 30.717 23.374C31.1543 23.8327 31.472 24.244 31.67 24.608C31.868 24.972 31.967 25.3 31.967 25.592C31.967 26.196 31.7377 26.873 31.279 27.623C30.8203 28.373 30.341 29.0083 29.841 29.529C29.5077 29.9043 28.94 30.4097 28.138 31.045C27.336 31.6803 26.4767 31.998 25.56 31.998L25.563 32.002ZM6.344 1.596C6.13533 1.596 5.77067 1.73667 5.25 2.018C4.72933 2.29933 4.15633 2.72133 3.531 3.284C2.927 3.84667 2.453 4.404 2.109 4.956C1.765 5.508 1.593 5.99233 1.593 6.409C1.593 9.09633 2.33267 11.8567 3.812 14.69C5.312 17.5233 7.22333 20.1067 9.546 22.44C11.8687 24.7733 14.4467 26.6797 17.28 28.159C20.1133 29.659 22.8737 30.409 25.561 30.409C25.9777 30.409 26.462 30.232 27.014 29.878C27.566 29.524 28.1233 29.0553 28.686 28.472C29.2487 27.826 29.6707 27.2427 29.952 26.722C30.2333 26.2013 30.374 25.8367 30.374 25.628C30.3533 25.4613 30.1033 25.0967 29.624 24.534C29.1447 23.9713 28.332 23.242 27.186 22.346C26.186 21.596 25.3213 21.018 24.592 20.612C23.8627 20.206 23.394 20.003 23.186 20.003C23.1653 20.003 23.108 20.0343 23.014 20.097C22.92 20.1597 22.7793 20.3057 22.592 20.535C22.446 20.7437 22.2897 20.978 22.123 21.238C21.9563 21.498 21.7897 21.7637 21.623 22.035C21.1857 22.7643 20.7327 23.4153 20.264 23.988C19.7953 24.5607 19.259 24.847 18.655 24.847C18.551 24.847 18.452 24.8417 18.358 24.831C18.264 24.8203 18.165 24.7943 18.061 24.753C17.019 24.3363 15.946 23.732 14.842 22.94C13.738 22.148 12.691 21.2573 11.701 20.268C10.711 19.2787 9.82033 18.2317 9.029 17.127C8.23767 16.0223 7.63333 14.9493 7.216 13.908C7.112 13.658 7.091 13.3403 7.153 12.955C7.215 12.5697 7.49633 12.1583 7.997 11.721C8.247 11.471 8.544 11.2313 8.888 11.002C9.232 10.7727 9.581 10.554 9.935 10.346C10.2057 10.1793 10.4713 10.0127 10.732 9.846C10.9927 9.67933 11.227 9.523 11.435 9.377C11.6643 9.18967 11.8103 9.049 11.873 8.955C11.9357 8.861 11.967 8.80367 11.967 8.783C11.967 8.57433 11.764 8.10567 11.358 7.377C10.952 6.64833 10.374 5.78367 9.624 4.783C8.728 3.637 7.99867 2.82433 7.436 2.345C6.87333 1.86567 6.50867 1.61567 6.342 1.595L6.344 1.596Z" fill="#082D53"/>
</g>
<defs>
<clipPath id="clip0_148_1422">
<rect width="32" height="32" fill="white"/>
</clipPath>
</defs>
</svg>
