<svg width="14" height="16" viewBox="0 0 14 16" fill="none" xmlns="http://www.w3.org/2000/svg">
<path d="M13.4721 11.7424L11.5379 9.50953C10.8471 8.71208 9.67277 9.03109 9.39645 10.0677C9.18922 10.7855 8.49843 11.1842 7.87672 11.0247C6.49515 10.626 4.63003 8.5526 4.28464 6.87796C4.0774 6.16023 4.49187 5.36279 5.11358 5.12358C6.0116 4.80461 6.28792 3.44895 5.59713 2.6515L3.66293 0.418659C3.1103 -0.139553 2.28136 -0.139553 1.79781 0.418659L0.485319 1.9338C-0.827173 3.52869 0.623476 7.75515 3.87017 11.5031C7.11686 15.2511 10.778 17.0055 12.1596 15.4106L13.4721 13.8955C13.9557 13.2575 13.9557 12.3006 13.4721 11.7424Z" fill="#082D53"/>
</svg>
