<svg width="61" height="60" viewBox="0 0 61 60" fill="none" xmlns="http://www.w3.org/2000/svg">
<g clip-path="url(#clip0_141_69)">
<path d="M1.11199 5.50871L5.14818 12.4818C5.18687 12.5993 5.26487 12.7068 5.38219 12.8043C5.49951 12.9018 5.61682 12.97 5.73414 13.0087L9.47829 13.8881L22.2327 26.7206L23.6948 25.3143L10.7064 12.3056C10.6277 12.2268 10.5497 12.1681 10.4724 12.1293L10.2384 12.0112L6.61027 11.1318L3.2162 5.15433L6.14225 2.22371L12.1104 5.68121L12.9884 9.25496L13.1064 9.48933C13.1064 9.48933 13.165 9.56746 13.2823 9.72371L26.2708 22.7325L27.6749 21.3262L14.8624 8.49371L13.9844 4.74371C13.9457 4.62621 13.8777 4.50871 13.7803 4.39121C13.683 4.27371 13.5756 4.19558 13.4583 4.15683L6.49608 0.114331C6.30138 0.0355811 6.0967 0.00620611 5.88203 0.0262061C5.66737 0.0462061 5.46269 0.134331 5.26799 0.290581L1.28983 4.27496C1.13383 4.43121 1.03648 4.62683 0.997791 4.86183C0.959101 5.09683 0.998415 5.31183 1.11573 5.50683L1.11199 5.50871ZM42.6477 19.6875L20.6508 41.7187L19.2468 40.3125L41.2437 18.2812L42.6477 19.6875ZM16.8486 42.48C16.7313 42.3237 16.6047 42.2062 16.4686 42.1275C16.3326 42.0487 16.1666 42.0093 15.9706 42.0093H10.0025C9.80778 42.0093 9.63242 42.0487 9.47642 42.1275C9.32041 42.2062 9.2031 42.3237 9.12447 42.48L6.14038 47.52C6.02306 47.6762 5.96441 47.8425 5.96441 48.0187C5.96441 48.195 6.02306 48.3612 6.14038 48.5175L9.12447 53.5575C9.2031 53.7137 9.32041 53.8312 9.47642 53.91C9.63242 53.9887 9.80778 54.0281 10.0025 54.0281H15.9706C16.1653 54.0281 16.3313 53.9887 16.4686 53.91C16.6059 53.8312 16.7326 53.7137 16.8486 53.5575L19.8327 48.5175C19.9114 48.3612 19.9507 48.195 19.9507 48.0187C19.9507 47.8425 19.9114 47.6762 19.8327 47.52L16.8486 42.48ZM15.3866 52.0312H10.5304L8.13227 48.0468L10.5304 44.0043H15.3866L17.7847 48.0468L15.3866 52.0312ZM48.9079 24.0243C50.5853 24.0243 52.1454 23.7118 53.5881 23.0868C55.0309 22.4618 56.2983 21.6125 57.3903 20.5387C58.4823 19.465 59.3404 18.205 59.9644 16.7587C60.5884 15.3125 60.9004 13.75 60.9004 12.0712C60.9004 11.5637 60.8711 11.0656 60.8125 10.5768C60.7538 10.0881 60.6658 9.58996 60.5485 9.08246C60.4699 8.84746 60.3139 8.65183 60.0805 8.49558C59.8471 8.33933 59.5937 8.29996 59.3204 8.37746L58.8524 8.61183L52.6502 14.8818L47.736 13.2412L46.0979 8.26121L52.3001 2.04933C52.4948 1.85433 52.5922 1.61996 52.5922 1.34621C52.5922 1.07246 52.4948 0.838081 52.3001 0.643081C52.2215 0.564331 52.1435 0.505581 52.0661 0.466831L51.8321 0.348706C50.2334 -0.0425439 48.654 -0.120669 47.0939 0.114331C45.5338 0.388081 44.1004 0.915581 42.7937 1.69683C41.487 2.47808 40.3463 3.49371 39.3716 4.74371C38.3969 5.99371 37.7142 7.41933 37.3235 9.02058C37.2062 9.52808 37.1182 10.0262 37.0596 10.515C37.0009 11.0037 36.9716 11.5018 36.9716 12.0093C36.9716 12.4006 36.9909 12.7912 37.0296 13.1812C37.0683 13.5712 37.127 13.9618 37.2056 14.3531L15.3248 36.2681C14.9341 36.1893 14.5441 36.1306 14.1547 36.0918C13.7653 36.0531 13.3753 36.0337 12.9847 36.0337C11.3073 36.0337 9.74725 36.3462 8.3045 36.9712C6.86175 37.5962 5.59436 38.4456 4.50232 39.5193C3.41027 40.5931 2.55224 41.8725 1.92821 43.3575C1.30419 44.8025 0.992175 46.365 0.992175 48.045C0.992175 49.6862 1.30419 51.2293 1.92821 52.6743C2.55224 54.1593 3.41027 55.4387 4.50232 56.5125C5.59436 57.5862 6.86175 58.4356 8.3045 59.0606C9.74725 59.6856 11.3073 59.9981 12.9847 59.9981C14.6234 59.9981 16.1834 59.6856 17.6649 59.0606C19.1076 58.4356 20.375 57.5862 21.4671 56.5125C22.5591 55.4387 23.4171 54.1593 24.0412 52.6743C24.6652 51.2293 24.9772 49.6862 24.9772 48.045C24.9772 47.615 24.9579 47.205 24.9192 46.815C24.8805 46.425 24.8218 46.0537 24.7432 45.7012L29.9494 40.4268L32.2315 42.7125C32.4262 42.9075 32.6602 43.005 32.9335 43.005C33.2068 43.005 33.4408 42.9075 33.6355 42.7125L34.1616 42.2437C34.3962 42.0087 34.6596 41.8912 34.9516 41.8912C35.2437 41.8912 35.507 42.0087 35.7416 42.2437C35.9763 42.4387 36.0936 42.6925 36.0936 43.005C36.0936 43.3175 35.9763 43.5912 35.7416 43.8262L35.2156 44.295C35.0209 44.49 34.9235 44.7243 34.9235 44.9981C34.9235 45.2718 35.0209 45.5062 35.2156 45.7012L47.1501 57.6543C48.7101 59.2556 50.6015 60.0562 52.8243 60.0562C55.0471 60.0562 56.9585 59.275 58.5585 57.7125C60.1585 56.15 60.9579 54.2556 60.9566 52.0293C60.9554 49.8031 60.1753 47.8887 58.6165 46.2862L46.624 34.275C46.4293 34.08 46.1953 33.9825 45.922 33.9825C45.6487 33.9825 45.4146 34.08 45.2199 34.275L44.7519 34.8018C44.5173 35.0368 44.244 35.1543 43.932 35.1543C43.6199 35.1543 43.3666 35.0368 43.1719 34.8018C42.9373 34.5668 42.8199 34.3031 42.8199 34.0106C42.8199 33.7181 42.9373 33.4543 43.1719 33.2193L43.6399 32.6925C43.8346 32.4975 43.932 32.2631 43.932 31.9893C43.932 31.7156 43.8346 31.4812 43.6399 31.2862L41.3579 29.0006L46.5641 23.7862C46.9547 23.865 47.3447 23.9237 47.7341 23.9625C48.1235 24.0012 48.5135 24.0206 48.9042 24.0206L48.9079 24.0243ZM52.8861 58.0087C52.4954 58.0087 52.1248 57.9793 51.7741 57.9206C51.4234 57.8618 51.0721 57.7737 50.7201 57.6562L58.5604 49.8037C59.1457 51.3662 59.087 52.9187 58.3844 54.4612C57.6817 56.0037 56.5504 57.0681 54.9903 57.6543C54.6396 57.7718 54.2883 57.86 53.9363 57.9187C53.5844 57.9775 53.233 58.0068 52.8823 58.0068L52.8861 58.0087ZM41.5376 32.0512C40.9909 32.6762 40.7569 33.4187 40.8355 34.2787C40.9142 35.1387 41.2848 35.8612 41.9476 36.4462C42.5329 36.915 43.1962 37.1493 43.9376 37.1493C44.6789 37.1493 45.3423 36.915 45.9276 36.4462L57.16 47.6381C57.1987 47.7168 57.2474 47.785 57.3061 47.8425L57.5101 48.0468L48.9678 56.6025L48.7638 56.3981C48.7638 56.3981 48.6958 56.3493 48.5597 56.2518L37.3853 45.0018C37.932 44.3381 38.166 43.5762 38.0873 42.7162C38.0087 41.8562 37.638 41.1531 36.9753 40.6068C36.39 40.1381 35.7173 39.9037 34.9572 39.9037C34.1972 39.9037 33.5245 40.1381 32.9391 40.6068L31.3591 39.0243L39.9594 30.4106L41.5376 32.0512ZM45.5738 21.9731L22.9329 44.6493C22.8156 44.7668 22.7276 44.9131 22.6689 45.0881C22.6103 45.2631 22.6003 45.4293 22.639 45.5868C23.3416 48.2818 22.9809 50.8306 21.5569 53.2331C20.1329 55.6356 18.0755 57.1687 15.3847 57.8325C12.6939 58.5362 10.1585 58.175 7.77845 56.7487C5.39842 55.3225 3.8577 53.2618 3.15629 50.5668C2.49358 47.8718 2.86425 45.3325 4.26831 42.9487C5.67236 40.565 7.71979 39.0218 10.4106 38.3193C11.2293 38.1243 12.058 38.0268 12.8967 38.0268C13.7354 38.0268 14.5641 38.1243 15.3828 38.3193C15.5388 38.3581 15.7048 38.3581 15.8808 38.3193C16.0568 38.2806 16.2028 38.2025 16.3189 38.085L39.0178 15.3506C39.1351 15.2331 39.2131 15.0962 39.2518 14.94C39.2905 14.7837 39.2905 14.6081 39.2518 14.4131C38.5891 11.7568 38.9497 9.24683 40.3338 6.88308C41.7179 4.51933 43.756 2.98621 46.448 2.28371C46.916 2.16621 47.4134 2.08808 47.9401 2.04933C48.4667 2.01058 48.9834 1.99121 49.4902 1.99121L44.224 7.32371C44.1067 7.44121 44.0187 7.58746 43.96 7.76246C43.9014 7.93746 43.9114 8.12308 43.99 8.31933L45.98 14.2968C46.0187 14.4531 46.0967 14.59 46.214 14.7075C46.3313 14.825 46.468 14.9031 46.624 14.9418L52.5922 16.935C52.7869 17.0137 52.9722 17.0331 53.1482 16.9931C53.3242 16.9531 53.4902 16.8556 53.6462 16.7006L58.9123 11.4262V12.0131C58.951 14.7481 58.005 17.0918 56.0742 19.0443C54.1435 20.9968 51.7934 21.9931 49.024 22.0331C48.5947 22.0331 48.1753 22.0037 47.766 21.945C47.3566 21.8862 46.9373 21.7981 46.5079 21.6806C46.3519 21.6418 46.1859 21.6518 46.01 21.7106C45.834 21.7693 45.688 21.8575 45.5719 21.975L45.5738 21.9731ZM52.6521 50.3325L51.248 51.7387L41.2437 41.7187L42.6477 40.3125L52.6521 50.3325Z" fill="#082D53"/>
</g>
<defs>
<clipPath id="clip0_141_69">
<rect width="59.9064" height="60" fill="white" transform="translate(0.935547)"/>
</clipPath>
</defs>
</svg>
