<svg width="132" height="143" fill="none" xmlns="http://www.w3.org/2000/svg"><path fill-rule="evenodd" clip-rule="evenodd" d="M66.59 3C34.657 3 8.278 26.416 4.001 56.809H.974C5.27 24.73 33.023 0 66.589 0c19.701 0 37.399 8.52 49.528 22.043h-4.003v.11C100.621 10.347 84.476 3 66.589 3Zm53.048 28.525a61.722 61.722 0 0 1 9.295 23.703h3.041a64.65 64.65 0 0 0-8.781-23.703h-3.555ZM1.205 75.772h3.04a61.513 61.513 0 0 0 2.929 11.061H3.986a64.493 64.493 0 0 1-2.78-11.061Zm7.84 22.123C20.44 117.673 41.948 131 66.589 131c31.894 0 58.538-22.327 64.801-52.068h-3.071C122.107 106.985 96.839 128 66.589 128c-22.916 0-42.973-12.06-54.052-30.105H9.045Z" fill="#F7D473"/><ellipse cx="97.04" cy="123.477" rx="18.888" ry="19" fill="#F7D473"/><path d="M96.696 129.14a7.12 7.12 0 0 1-2.03-.294c-.653-.205-1.204-.485-1.652-.84l.784-1.414c.355.289.784.523 1.288.7a4.74 4.74 0 0 0 1.582.266c.653 0 1.162-.131 1.526-.392.364-.271.546-.635.546-1.092 0-.448-.168-.803-.504-1.064-.336-.261-.877-.392-1.624-.392h-.896v-1.246l2.8-3.332.238.686H93.49V119.2h6.678v1.218l-2.8 3.332-.952-.56h.546c1.204 0 2.105.271 2.702.812.607.532.91 1.218.91 2.058 0 .551-.14 1.059-.42 1.526-.28.467-.71.845-1.288 1.134-.57.28-1.293.42-2.17.42Z" fill="#111"/><g clip-path="url(#a)"><path d="m95.43 88.312.125-6.188c0-.041-.052-.74-.156-2.094-.104-1.355-.448-2.865-1.032-4.532l-3.312-7.812h-5.5l-3.438 7.938c-.5 1.584-.802 3.053-.906 4.406a180.571 180.571 0 0 0-.156 2.094v2.062h-3.062c-.833 0-1.552-.302-2.156-.906-.604-.604-.906-1.323-.906-2.156v-4.376c2.5-1.417 4.51-3.386 6.032-5.906 1.521-2.52 2.282-5.322 2.282-8.406v-.126c.917-.25 1.657-.74 2.218-1.468.561-.728.843-1.572.844-2.532.001-.96-.124-1.73-.376-2.312-.252-.581-.502-.998-.75-1.25V52.06a18.71 18.71 0 0 0-1.562-7.25c-.959-2.25-2.281-4.21-3.968-5.876-1.687-1.667-3.655-3-5.906-4a18.6 18.6 0 0 0-7.25-1.438 18.6 18.6 0 0 0-7.25 1.438c-2.25 1-4.21 2.333-5.876 4-1.666 1.667-3 3.625-4 5.876a18.601 18.601 0 0 0-1.438 7.25v2.688c-.208.25-.447.667-.718 1.25-.27.583-.406 1.353-.406 2.312 0 .959.282 1.813.844 2.562a3.73 3.73 0 0 0 2.218 1.438v.126c0 3.084.76 5.876 2.282 8.376 1.521 2.5 3.532 4.48 6.032 5.938v4.376c0 .833-.302 1.552-.906 2.156-.604.604-1.322.906-2.156.906h-5.126V82.75c1-.625 1.76-1.417 2.282-2.376.521-.959.782-2.084.782-3.376 0-1.25-.416-2.5-1.25-3.75-.833-1.25-2.083-2.041-3.75-2.376l-1.25-.25v5.376h-1.938v-5.376l-1.312.25c-1.584.375-2.802 1.187-3.656 2.438-.853 1.25-1.28 2.48-1.282 3.688 0 1.292.25 2.417.75 3.376.5.959 1.27 1.75 2.312 2.376v2.562c-2.125.959-3.855 2.438-5.188 4.438-1.333 2-2 4.25-2 6.75v1h2.062v-1c0-2.708.896-5.03 2.688-6.968 1.792-1.937 4-3.031 6.626-3.282V97.5h2.062V86.124h3.062V97.5h2.062V86.124h2.062c.167 0 .354-.02.562-.062.208-.041.438-.062.688-.062.459 2.375 1.636 4.375 3.532 6 1.896 1.625 4.094 2.438 6.594 2.438s4.698-.802 6.594-2.406 3.073-3.615 3.532-6.032c.167.041.354.073.562.094.208.021.437.032.688.032h2.062v11.376h2.062V86.126h3.062v11.376h2.062v-11.25c2.625.25 4.834 1.365 6.626 3.344 1.792 1.979 2.688 4.28 2.688 6.906v1h2.062v-1c0-1.541-.27-3.02-.812-4.438a12.122 12.122 0 0 0-2.25-3.75l-.004-.002Zm-47-7.186-.5.25v2.688h-1c-.542 0-1.063.031-1.563.094s-1 .157-1.5.282v-3.062l-.562-.25c-.833-.459-1.468-1.021-1.906-1.688-.437-.667-.656-1.52-.656-2.562 0-.625.188-1.281.562-1.968a5.181 5.181 0 0 1 1.5-1.718v4.75h6.126v-4.75c.708.375 1.229.906 1.562 1.594.334.688.5 1.386.5 2.094 0 1.041-.198 1.917-.594 2.626-.396.71-1.052 1.251-1.968 1.626l-.002-.006ZM82.99 57.438c.125-.084.25-.178.376-.282a5.51 5.51 0 0 0 .376-.344c.084.167.157.385.218.656.061.27.093.552.094.844 0 .417-.094.771-.282 1.062-.188.29-.449.54-.782.75v-2.686Zm-17.5-21.75v7.188h2v-7.188c2.125.125 4.125.625 6 1.5a17.035 17.035 0 0 1 4.844 3.438 16.546 16.546 0 0 1 3.344 4.938c.833 1.875 1.27 3.875 1.312 6-1.833-.959-4.406-1.625-7.718-2-3.312-.375-6.24-.562-8.782-.562s-5.47.187-8.782.562c-3.312.375-5.885 1.041-7.718 2 .041-2.125.479-4.125 1.312-6a16.548 16.548 0 0 1 3.344-4.938 17.035 17.035 0 0 1 4.844-3.438 16.331 16.331 0 0 1 6-1.5Zm-15.5 24.438a2.455 2.455 0 0 1-.782-.75c-.188-.292-.282-.646-.282-1.062a3.734 3.734 0 0 1 .312-1.5c.126.125.25.23.376.312.125.083.25.187.376.312v2.688Zm0-6c.126-.541 1.626-1.187 4.5-1.938 2.875-.75 6.875-1.126 12-1.126 5.167 0 9.198.375 12.094 1.126 2.896.75 4.365 1.397 4.406 1.938 0 1-1.459 1.927-4.376 2.782-2.917.855-6.96 1.282-12.126 1.282-5.167.084-9.209-.322-12.126-1.218-2.917-.896-4.376-1.844-4.376-2.844l.004-.002Zm2.062 8.312v-4c2.292.833 4.918 1.365 7.876 1.594 2.959.23 5.146.344 6.562.344 1.416 0 3.603-.094 6.562-.282 2.959-.188 5.584-.74 7.876-1.656v4c0 1.959-.375 3.834-1.126 5.626a14.524 14.524 0 0 1-3.094 4.594 14.523 14.523 0 0 1-4.594 3.094c-1.75.75-3.626 1.126-5.626 1.126-2 0-3.875-.375-5.626-1.126a14.523 14.523 0 0 1-4.594-3.094 14.524 14.524 0 0 1-3.094-4.594 14.417 14.417 0 0 1-1.126-5.626h.004Zm14.438 29.938c-2.125 0-3.959-.709-5.5-2.126-1.541-1.417-2.437-3.147-2.688-5.188.584-.417 1.074-.99 1.468-1.718.395-.728.593-1.51.594-2.344v-3.312c.959.375 1.948.677 2.968.906 1.02.23 2.072.344 3.156.344s2.136-.104 3.156-.312c1.02-.208 2.01-.52 2.968-.938V81c0 .833.187 1.594.562 2.282a5.84 5.84 0 0 0 1.5 1.782c-.208 2.041-1.093 3.77-2.656 5.188-1.563 1.417-3.407 2.126-5.532 2.126l.004-.002Zm19.438-8.314h-2.812V82l.126-1.812.812-3.938 2.812-6.626h.376v9.438a3.134 3.134 0 0 0-1.468 1.094c-.395.521-.593 1.136-.594 1.844-.084.459-.042.855.126 1.188.168.333.377.625.626.876l-.004-.002Zm2.312-1c-.25 0-.48-.115-.688-.344-.208-.23-.312-.469-.312-.718 0-.25.104-.479.312-.688.208-.21.437-.313.688-.312.25.001.49.105.718.312.228.207.343.436.344.688.002.252-.113.491-.344.718-.23.227-.47.341-.718.344Zm5.126 3.438c-.5-.375-1.063-.719-1.688-1.032a14.169 14.169 0 0 0-1.876-.782c.417-.25.771-.615 1.062-1.094.29-.479.437-1.01.438-1.594 0-.708-.198-1.312-.594-1.812a3.84 3.84 0 0 0-1.406-1.126v-9.438h.376l2.812 6.5c.5 1.459.792 2.803.876 4.032l.126 1.844-.126 4.502ZM67.491 63.438h9.376v-2.062H65.491v10.376h2v-8.314Zm-14.438-16.5h2.062V49h-2.062v-2.062Zm4.25-1h2v2h-2v-2Z" fill="#fff"/></g><defs><clipPath id="a"><path fill="#fff" transform="translate(34.491 33.5)" d="M0 0h64v64H0z"/></clipPath></defs></svg>