<svg width="33" height="32" viewBox="0 0 33 32" fill="none" xmlns="http://www.w3.org/2000/svg">
<path d="M16.6174 31.7188C14.5274 31.7188 12.5709 31.3124 10.7478 30.4998C8.92474 29.7078 7.33206 28.6191 5.96982 27.2338C4.60758 25.8484 3.52689 24.2288 2.72777 22.3748C1.94897 20.4994 1.55957 18.5098 1.55957 16.4058C1.55957 14.2804 1.94897 12.2908 2.72777 10.4368C3.52689 8.58277 4.60758 6.96311 5.96982 5.57777C7.33206 4.19244 8.92474 3.09344 10.7478 2.28077C12.5709 1.48877 14.5274 1.09277 16.6174 1.09277C18.7073 1.09277 20.6638 1.48877 22.4869 2.28077C24.31 3.09344 25.9026 4.19244 27.2649 5.57777C28.6271 6.96311 29.7078 8.58277 30.5069 10.4368C31.2857 12.2908 31.6751 14.2804 31.6751 16.4058C31.6751 18.5098 31.2857 20.4994 30.5069 22.3748C29.7078 24.2288 28.6271 25.8484 27.2649 27.2338C25.9026 28.6191 24.31 29.7078 22.4869 30.4998C20.6638 31.3124 18.7073 31.7188 16.6174 31.7188ZM16.6174 2.40577C14.7123 2.40577 12.9197 2.77044 11.2395 3.49977C9.58029 4.22911 8.12561 5.22377 6.87547 6.48377C5.62533 7.74377 4.64199 9.22811 3.92547 10.9368C3.20895 12.6454 2.85036 14.4684 2.8497 16.4058C2.84905 18.3431 3.20764 20.1661 3.92547 21.8748C4.66297 23.5621 5.65646 25.0414 6.90595 26.3128C8.15544 27.5841 9.61012 28.5841 11.27 29.3128C12.9502 30.0421 14.7326 30.4068 16.6174 30.4068C18.5224 30.4068 20.315 30.0421 21.9952 29.3128C23.6544 28.5628 25.1091 27.5524 26.3592 26.2818C27.6094 25.0111 28.5927 23.5318 29.3092 21.8438C30.0264 20.1351 30.385 18.3224 30.385 16.4058C30.385 14.4684 30.0264 12.6454 29.3092 10.9368C28.5921 9.22811 27.6087 7.74377 26.3592 6.48377C25.1097 5.22377 23.6551 4.22911 21.9952 3.49977C20.315 2.77044 18.5224 2.40577 16.6174 2.40577ZM17.2624 17.0628H9.05749V15.7498H15.9713V4.46877H17.2624V17.0628Z" fill="#082D53"/>
</svg>
