<svg width="61" height="60" viewBox="0 0 61 60" fill="none" xmlns="http://www.w3.org/2000/svg">
<g clip-path="url(#clip0_141_1576)">
<path d="M57.2525 49.6481C54.3325 48.0702 51.7007 46.8483 49.3573 45.9824C47.0138 45.1165 44.8431 44.5105 42.8452 44.1644L43.3062 43.5861C43.4218 43.4703 43.5085 43.3453 43.5663 43.211C43.6241 43.0768 43.6142 42.913 43.5368 42.7196L42.6146 39.0817C43.8441 37.388 44.7952 35.5115 45.4677 33.452C46.1402 31.3926 46.4765 29.3239 46.4765 27.246V23.2625H49.4163C49.7236 23.2625 49.9542 23.1757 50.1079 23.002C50.2616 22.8284 50.3384 22.6073 50.3384 22.3387C50.3384 22.0308 50.2616 21.7999 50.1079 21.6459C49.9542 21.4919 49.7236 21.4149 49.4163 21.4149H48.4941V20.4339C48.4941 18.5087 48.1868 16.6611 47.572 14.8911C46.9572 13.1211 46.0831 11.5143 44.9495 10.0707C43.8159 8.62713 42.4806 7.36645 40.9437 6.28868C39.3687 5.2491 37.6204 4.46018 35.6986 3.92192V3.57457C35.6986 2.80474 35.4202 2.12174 34.8632 1.52558C34.3062 0.929426 33.6245 0.631348 32.8179 0.631348H28.7827C27.9761 0.631348 27.2747 0.910335 26.6784 1.46831C26.082 2.02628 25.7845 2.72898 25.7857 3.57641V3.80736C23.8259 4.34686 22.0585 5.13579 20.4835 6.17413C18.9466 7.2519 17.6212 8.51257 16.5072 9.95616C15.3933 11.3997 14.529 13.0065 13.9142 14.7765C13.2995 16.5465 12.9921 18.3941 12.9921 20.3193V21.3004H11.9538C11.6464 21.3004 11.4159 21.3774 11.2622 21.5313C11.1085 21.6853 11.0316 21.9163 11.0316 22.2242C11.0316 22.4939 11.1085 22.715 11.2622 22.8875C11.4159 23.0599 11.6464 23.1468 11.9538 23.148H14.8935V27.1314C14.8935 29.2106 15.2298 31.2793 15.9023 33.3375C16.5749 35.3957 17.5259 37.2722 18.7554 38.9671L17.8333 42.605C17.8333 42.7208 17.8431 42.8649 17.8628 43.0374C17.8825 43.2098 17.9495 43.3539 18.0638 43.4697L18.5249 44.048C16.5269 44.3941 14.3562 45.0198 12.0128 45.9252C9.66934 46.8305 7.03758 48.0333 4.11749 49.5335C3.15725 50.073 2.42692 50.7849 1.92651 51.6693C1.4261 52.5537 1.17651 53.4966 1.17774 54.498V58.7124C1.17774 58.9821 1.26442 59.2032 1.43778 59.3756C1.61114 59.5481 1.83184 59.6349 2.09987 59.6362H59.1577C59.4269 59.6362 59.6476 59.5493 59.8198 59.3756C59.9919 59.202 60.0786 58.9809 60.0798 58.7124V54.498C60.1179 53.536 59.8775 52.6221 59.3587 51.7562C58.8398 50.8903 58.1366 50.1876 57.2525 49.6481ZM30.1087 48.7243L30.6859 47.4531L32.1853 50.7437L33.1646 52.8222H28.3234L30.1087 48.7243ZM27.5138 54.8453H33.7382L34.3154 57.7331H26.9384L27.5138 54.8453ZM41.0009 40.9884L41.3476 42.7214L40.3093 44.1644C40.2318 44.1644 40.1931 44.1835 40.1931 44.2217V44.3953L36.0435 49.9954L34.7747 51.7857L32.0654 45.781C33.6798 45.6271 35.1786 45.1652 36.5618 44.3953C37.945 43.6255 39.2322 42.6826 40.4236 41.5667L40.5398 41.4503C40.6554 41.4121 40.7421 41.3542 40.7999 41.2766C40.8577 41.199 40.9247 41.1029 41.0009 40.9884ZM39.6749 7.78893C39.7523 7.82712 39.8193 7.85606 39.8759 7.87577C39.9325 7.89548 39.9995 7.94351 40.0769 8.01988C40.6917 8.48178 41.2874 8.98248 41.864 9.52198C42.4407 10.0615 42.9208 10.6194 43.3044 11.1959L38.7509 12.1197L39.6749 7.78893ZM22.5011 12.1197L17.9476 11.1959C18.4087 10.6182 18.9177 10.0602 19.4747 9.52198C20.0316 8.98371 20.5984 8.48301 21.1751 8.01988C21.2525 7.94228 21.3195 7.89425 21.3761 7.87577C21.4327 7.85729 21.4997 7.82835 21.5771 7.78893L22.5011 12.1197ZM15.0079 20.3175C15.0079 19.0476 15.1714 17.7967 15.4984 16.565C15.8255 15.3333 16.2767 14.1594 16.8521 13.0435L23.6538 14.3719H23.8843C24.0761 14.3719 24.22 14.343 24.3159 14.2851C24.4118 14.2272 24.5366 14.1791 24.6902 14.141C24.882 14.0252 24.9878 13.8811 25.0075 13.7086C25.0271 13.5362 25.037 13.3533 25.037 13.1599L23.6538 6.63603C23.9993 6.44388 24.3546 6.28006 24.7197 6.14457C25.0849 6.00908 25.479 5.88406 25.9019 5.76951V8.36723C25.9019 8.67516 25.9788 8.90611 26.1325 9.06008C26.2861 9.21404 26.5167 9.29103 26.8241 9.29103C27.1314 9.29103 27.362 9.21404 27.5156 9.06008C27.6693 8.90611 27.7462 8.67516 27.7462 8.36723V3.57457C27.7462 3.343 27.8329 3.13114 28.0062 2.93899C28.1796 2.74684 28.4003 2.65077 28.6683 2.65077H32.7036C32.9347 2.65077 33.1462 2.72775 33.338 2.88172C33.5298 3.03569 33.6257 3.26663 33.6257 3.57457V8.48178C33.6257 8.78971 33.7025 9.02066 33.8562 9.17463C34.0099 9.3286 34.2404 9.40558 34.5478 9.40558C34.8552 9.40558 35.0857 9.3286 35.2394 9.17463C35.3931 9.02066 35.47 8.78971 35.47 8.48178V5.88406C35.8929 5.99984 36.287 6.14396 36.6521 6.3164C37.0173 6.48884 37.4114 6.67175 37.8343 6.86513L36.5654 13.2744C36.5654 13.4666 36.5943 13.6495 36.6521 13.8232C36.7099 13.9969 36.7966 14.141 36.9122 14.2555C37.0277 14.3701 37.1236 14.4569 37.1999 14.516C37.2761 14.5752 37.4107 14.6041 37.6038 14.6029H37.8343L44.5197 12.9289C45.0964 14.0449 45.5476 15.2187 45.8734 16.4505C46.1993 17.6822 46.3628 18.9718 46.364 20.3193V21.3004H15.0116V20.3193L15.0079 20.3175ZM16.8521 23.2625H44.5161V27.246C44.5161 29.4397 44.17 31.4603 43.4777 33.3079C42.7855 35.1555 41.9212 36.811 40.8847 38.2743L40.538 38.6216C40.3068 38.9677 40.0474 39.2947 39.7597 39.6027C39.472 39.9106 39.2126 40.1804 38.9814 40.4119C37.8282 41.4515 36.5888 42.2983 35.2634 42.9524C33.938 43.6064 32.6027 43.9722 31.2577 44.0498C31.2195 44.0498 31.1618 44.0308 31.0843 43.9926C31.0068 43.9544 30.9109 43.9353 30.7966 43.9353H30.6232C30.6232 43.9353 30.5654 43.9741 30.4499 44.0517C29.6433 43.9741 28.8269 43.8201 28.0007 43.5898C27.1745 43.3595 26.3581 42.9936 25.5515 42.4923C24.7056 42.0304 23.9083 41.4724 23.1595 40.8184C22.4107 40.1643 21.7093 39.3945 21.0552 38.5089L20.7085 38.1616C19.5945 36.6983 18.7105 35.0428 18.0564 33.1952C17.4023 31.3476 17.0759 29.327 17.0771 27.1333L16.8466 23.2644L16.8521 23.2625ZM29.1866 45.8956L26.4773 51.9003L25.2085 50.11L21.0589 44.5099L20.9427 44.3935L19.9044 42.7196L20.2511 40.9865C20.3286 41.0247 20.3956 41.0826 20.4521 41.1602C20.5087 41.2378 20.5566 41.3339 20.596 41.4484C21.8255 42.642 23.1607 43.6237 24.6017 44.3935C26.0427 45.1633 27.5697 45.664 29.1829 45.8956H29.1866ZM3.19352 54.498C3.19352 53.8439 3.35704 53.2379 3.68409 52.68C4.01114 52.122 4.46237 51.7081 5.03778 51.4384C8.18901 49.7829 10.9363 48.5032 13.2798 47.5991C15.6232 46.695 17.7939 46.1272 19.7919 45.8956L25.6714 53.9788L24.9226 57.7313H3.19536V54.498H3.19352ZM58.1747 57.7313H36.4474L35.6986 53.9788L41.6925 45.7792C43.6904 46.0871 45.871 46.674 48.2341 47.5399C50.5972 48.4059 53.3347 49.6665 56.4466 51.322C57.0232 51.6681 57.4745 52.1201 57.8003 52.6781C58.1261 53.2361 58.2896 53.8421 58.2909 54.4961V57.7294L58.1747 57.7313Z" fill="#082D53"/>
</g>
<defs>
<clipPath id="clip0_141_1576">
<rect width="60" height="60" fill="white" transform="translate(0.68457)"/>
</clipPath>
</defs>
</svg>
