<svg width="132" height="143" fill="none" xmlns="http://www.w3.org/2000/svg"><path fill-rule="evenodd" clip-rule="evenodd" d="M66.595 3.5c-31.931 0-58.31 23.416-62.587 53.809H.98C5.276 25.23 33.03.5 66.595.5c19.701 0 37.399 8.52 49.528 22.043h-4.003v.11C100.626 10.847 84.482 3.5 66.595 3.5Zm53.049 28.525a61.738 61.738 0 0 1 9.295 23.703h3.04a64.63 64.63 0 0 0-8.78-23.703h-3.555ZM1.211 76.272h3.04A61.513 61.513 0 0 0 7.18 87.333H3.992A64.493 64.493 0 0 1 1.21 76.272Zm7.84 22.123C20.446 118.173 41.954 131.5 66.595 131.5c31.894 0 58.538-22.327 64.801-52.068h-3.071c-6.212 28.053-31.48 49.068-61.73 49.068-22.916 0-42.973-12.06-54.052-30.105H9.05Z" fill="#F7D473"/><ellipse cx="97.046" cy="123.977" rx="18.888" ry="19" fill="#F7D473"/><path d="M92.89 126.751v-1.26l4.83-6.314h1.945l-4.76 6.314-.91-.28h7.77v1.54h-8.876Zm5.375 2.226v-2.226l.056-1.54v-1.974h1.708v5.74h-1.764Z" fill="#111"/><g clip-path="url(#a)"><path d="m101.307 86.756-7.812-11.688 1.376-.438c.292-.084.51-.26.656-.532.145-.27.156-.53.032-.782v-.126l-2.376-6.126 4.876-4.562c.208-.208.322-.458.344-.75a.918.918 0 0 0-.282-.75c-.042 0-.062-.01-.062-.032v-.032l-4.876-4.5 2.376-6.188a.994.994 0 0 0 0-.844.946.946 0 0 0-.626-.532h-.062l-6.376-2-.562-6.626a5.004 5.004 0 0 0-.156-.406.772.772 0 0 0-.282-.344.777.777 0 0 0-.344-.188.898.898 0 0 0-.468 0l-6.688.938-3.376-5.75a1.06 1.06 0 0 0-.688-.468 1.214 1.214 0 0 0-.812.094v.062l-5.626 3.688-5.626-3.688a.97.97 0 0 0-.782-.156c-.27.063-.49.22-.656.468h-.062l-3.376 5.75-6.688-.938a1.131 1.131 0 0 0-.812.188.79.79 0 0 0-.376.688l-.062.062-.562 6.626-6.376 2a.96.96 0 0 0-.626.5c-.126.25-.146.52-.062.812v.062l2.376 6.188-4.876 4.5a1.147 1.147 0 0 0-.344.75.917.917 0 0 0 .282.75l.062.062 4.876 4.562-2.376 6.126a.993.993 0 0 0 0 .844c.125.271.334.47.626.594h.062l1.376.438-7.812 12.75c-.167.251-.219.522-.156.812.062.291.218.52.468.688.125.084.25.136.376.156.125.02.25.01.376-.032l10.688-1.938 1.938 9.626c.041.208.145.396.312.562.166.167.354.271.562.312h.188c.166 0 .333-.042.5-.126a.828.828 0 0 0 .376-.376l7.5-11.188 1.562 2.626c.084.126.188.23.312.312.124.083.25.146.376.188h.25c.125 0 .23-.01.312-.032a1.3 1.3 0 0 0 .25-.094l5.626-3.688 5.626 3.688c.25.167.511.22.782.156.27-.062.49-.218.656-.468l.062-.062 1.562-2.626 7.5 11.188c.084.167.21.292.376.376.166.084.333.126.5.126h.188c.208-.04.395-.145.562-.312.166-.166.27-.354.312-.562l1.938-9.688 10.75.938a.974.974 0 0 0 .782-.218c.229-.186.364-.426.406-.718 0-.125-.011-.25-.032-.376a.571.571 0 0 0-.156-.312l-.002.006Zm-48.312 7.438-1.626-8.126a1.253 1.253 0 0 0-.468-.688 1.032 1.032 0 0 0-.782-.188l-9.376 1.75 6.876-11.25 2.876.938.562 6.562c.041.167.093.313.156.438.062.126.156.23.282.312a.775.775 0 0 0 .344.188c.145.042.301.062.468.062l6.688-.938.562 1-6.562 9.94Zm25.562-12.626-3.188 5.312-5.312-3.438a.912.912 0 0 0-.562-.188.912.912 0 0 0-.562.188L63.62 86.88l-3.188-5.312a1.04 1.04 0 0 0-.938-.562h-.032l-.094.062-6.25.812-.562-6.126c0-.25-.073-.459-.218-.626a.93.93 0 0 0-.532-.312l-6-1.876 2.25-5.812c.084-.166.104-.364.062-.594a.83.83 0 0 0-.312-.532l-4.562-4.25 4.562-4.25c.166-.166.27-.354.312-.562.041-.208.02-.416-.062-.626l-2.25-5.75 6.062-1.876c.208-.084.374-.209.5-.376.125-.166.208-.354.25-.562l.5-6.188 6.25.876c.208.042.416.01.626-.094.21-.104.355-.239.438-.406l3.25-5.376 5.25 3.5c.166.084.354.126.562.126.208 0 .395-.042.562-.126l5.312-3.5 3.188 5.376c.125.167.281.302.468.406a.847.847 0 0 0 .594.094l6.25-.876.562 6.188c0 .208.072.396.218.562.145.167.322.292.532.376l6 1.876-2.25 5.75a1.069 1.069 0 0 0-.062.626c.042.21.146.397.312.562l4.562 4.25-4.562 4.25a.818.818 0 0 0-.312.532.936.936 0 0 0 .062.594l2.25 5.812-6.062 1.876a.926.926 0 0 0-.468.312.918.918 0 0 0-.218.626l-.562 6.126-6.25-.812a.972.972 0 0 0-.594.062 1.033 1.033 0 0 0-.47.438Zm10.25 3.626c-.292 0-.542.073-.75.218-.208.146-.354.364-.438.656l-1.626 8.126-6.562-9.938.562-1 6.688.938c.292.042.562-.03.812-.218.25-.186.395-.426.438-.718v-.062l.562-6.562 2.876-.938 6.938 10.376-9.5-.878Zm-3.312-28.812c0-.874-.313-1.624-.938-2.25-.626-.625-1.376-.938-2.25-.938h-7.5v-4.25c0-1.458-.52-2.708-1.562-3.75-1.042-1.04-2.292-1.562-3.75-1.562-.292 0-.542.104-.75.312a1.023 1.023 0 0 0-.312.75v5.062l-1.938 3.812-3.438 2.75c0-.25-.104-.48-.312-.688-.208-.208-.438-.312-.688-.312h-7.5c-.292 0-.542.104-.75.312a1.023 1.023 0 0 0-.312.75v16c0 .292.104.542.312.75.208.208.458.312.75.312h7.5c.292 0 .542-.104.75-.312.208-.208.312-.458.312-.75h16c.874 0 1.624-.312 2.25-.938.625-.625.938-1.375.938-2.25 0-.25-.042-.51-.126-.782a5.315 5.315 0 0 0-.312-.782 1.56 1.56 0 0 0 .282-.188 3.143 3.143 0 0 0 1.188-2.062 2.95 2.95 0 0 0-.406-2c.084-.084.178-.156.282-.218.104-.06.198-.134.282-.218.5-.5.802-1.104.906-1.812a2.95 2.95 0 0 0-.406-2c.084-.084.178-.156.282-.218.104-.06.198-.134.282-.218.292-.292.521-.636.688-1.032.166-.396.25-.823.25-1.282l-.004.002ZM60.933 71.318H55.62V57.442h5.312v13.876Zm22.124-14.124c-.126.084-.25.157-.376.218a.489.489 0 0 1-.376.032h-4.25v2.188h3.188c.292 0 .542.104.75.312.208.208.312.458.312.75 0 .126-.032.251-.094.376a3.65 3.65 0 0 1-.218.376c-.126.084-.25.157-.376.218a.87.87 0 0 1-.376.094h-4.312v2.126h3.25c.292 0 .542.104.75.312.208.208.312.458.312.75 0 .126-.032.261-.094.406-.063.146-.136.26-.218.344-.126.084-.25.157-.376.218a.87.87 0 0 1-.376.094h-4.312v2.126h3.25c.292 0 .542.104.75.312.208.208.312.458.312.75a.968.968 0 0 1-.094.438.798.798 0 0 1-.282.312.604.604 0 0 1-.312.25 1.18 1.18 0 0 1-.376.062h-16V59.07l4.938-3.938a.682.682 0 0 1 .126-.188.685.685 0 0 0 .126-.188l2.126-4.25c.041-.084.072-.167.094-.25a.998.998 0 0 0 .032-.25v-4.062a2.994 2.994 0 0 1 1.532 1.156c.396.563.594 1.178.594 1.844v5.312c0 .292.104.542.312.75.208.208.458.312.75.312h8.562c.292 0 .542.104.75.312.208.208.312.458.312.75a.968.968 0 0 1-.094.438c-.063.126-.134.251-.216.376Z" fill="#fff"/></g><defs><clipPath id="a"><path fill="#fff" transform="translate(37.497 34)" d="M0 0h64v64H0z"/></clipPath></defs></svg>