<svg xmlns="http://www.w3.org/2000/svg" width="133" height="143" fill="none"><path fill="#F7D473" fill-rule="evenodd" d="M66.613 3.5c-31.94 0-58.327 23.42-62.605 53.818H.98C5.278 25.235 33.038.5 66.613.5c19.707 0 37.41 8.52 49.541 22.047h-4.003v.109C100.654 10.849 84.505 3.5 66.613 3.5Zm53.065 28.53a61.741 61.741 0 0 1 9.297 23.707h3.041a64.653 64.653 0 0 0-8.783-23.707h-3.555ZM1.211 76.284h3.04a61.519 61.519 0 0 0 2.93 11.064H3.992A64.499 64.499 0 0 1 1.21 76.284Zm7.842 22.127c11.399 19.781 32.913 33.111 57.56 33.111 31.902 0 58.554-22.331 64.819-52.077h-3.071c-6.214 28.058-31.489 49.077-61.748 49.077-22.923 0-42.985-12.063-54.068-30.11H9.053Z" clip-rule="evenodd"/><circle cx="97.157" cy="123.977" r="19" fill="#F7D473"/><path fill="#111" d="M96.602 128.98v-9.1l.798.826h-2.87v-1.526h3.892v9.8h-1.82Z"/><g clip-path="url(#a)"><path fill="#fff" d="M90.31 83.75a1.2 1.2 0 0 0-.877.376c-.25.25-.376.563-.376.938v9.25a1.2 1.2 0 0 1-.376.876c-.25.25-.563.376-.938.376H42.305c-.333 0-.625-.115-.876-.344-.25-.23-.376-.531-.376-.906v-56.5c0-.333.115-.625.344-.876.23-.25.532-.376.906-.376h45.562c.334 0 .636.115.906.344.27.23.406.531.406.906v13.562c0 .333.115.635.344.906.23.27.531.406.906.406s.677-.125.906-.376c.23-.25.344-.563.344-.938V37.812c0-1-.365-1.885-1.094-2.656-.73-.77-1.635-1.156-2.718-1.156H42.303c-1.084 0-1.99.365-2.718 1.094-.728.73-1.093 1.635-1.094 2.718v56.5c0 1 .365 1.885 1.094 2.656.73.77 1.636 1.156 2.718 1.156h45.562c1.041 0 1.938-.365 2.688-1.094.75-.73 1.126-1.635 1.126-2.718v-9.25c-.041-.333-.197-.635-.468-.906-.27-.27-.573-.406-.906-.406h.004ZM76.434 52.312c0-3.208-1.125-5.937-3.376-8.188-2.25-2.25-4.96-3.376-8.126-3.376-3.208 0-5.937 1.125-8.188 3.376-2.25 2.25-3.376 4.98-3.376 8.188 0 1.625.323 3.157.968 4.594a12.588 12.588 0 0 0 2.594 3.782l.126.126c1 .959 2.177 1.698 3.532 2.218s2.76.78 4.218.782c1.457.001 2.853-.26 4.188-.782a11.307 11.307 0 0 0 3.562-2.218l.126-.126a12.021 12.021 0 0 0 2.75-3.782 10.787 10.787 0 0 0 1.002-4.594ZM65.06 43.25c2.459 0 4.573.885 6.344 2.656 1.77 1.77 2.656 3.906 2.656 6.406 0 1-.156 1.948-.468 2.844a8.576 8.576 0 0 1-1.344 2.468 6.58 6.58 0 0 0-1.562-1.812 9.346 9.346 0 0 0-2.062-1.25c.292-.375.51-.802.656-1.282.145-.48.218-.99.218-1.532v-.75c0-1.25-.437-2.303-1.312-3.156-.874-.853-1.916-1.28-3.126-1.282-1.21-.001-2.251.436-3.126 1.312-.874.876-1.312 1.918-1.312 3.126v.75c0 .541.084 1.052.25 1.532.167.48.375.907.626 1.282-.792.333-1.5.77-2.126 1.312a8.683 8.683 0 0 0-1.562 1.75 8.612 8.612 0 0 1-1.344-2.468 8.575 8.575 0 0 1-.468-2.844c0-2.5.886-4.635 2.656-6.406 1.77-1.77 3.906-2.656 6.406-2.656Zm-2.062 8.5V51c0-.541.198-1.01.594-1.406.396-.396.886-.594 1.468-.594.541 0 1.01.198 1.406.594.396.396.594.865.594 1.406v.75c0 .584-.198 1.073-.594 1.468a1.932 1.932 0 0 1-1.406.594c-.584 0-1.073-.198-1.468-.594-.395-.396-.593-.885-.594-1.468Zm-3.438 7.626a6.567 6.567 0 0 1 2.312-2.282c.957-.563 2.02-.844 3.188-.844 1.126 0 2.168.281 3.126.844a6.545 6.545 0 0 1 2.312 2.282 8.418 8.418 0 0 1-2.532 1.344 9.141 9.141 0 0 1-2.906.468 9.064 9.064 0 0 1-2.938-.468 9.366 9.366 0 0 1-2.562-1.344ZM71.747 88.75H65.06c-.333 0-.635.115-.906.344a1.13 1.13 0 0 0-.406.906c0 .375.115.677.344.906.23.23.552.344.968.344h6.688c.334 0 .635-.115.906-.344.27-.23.406-.531.406-.906a1.13 1.13 0 0 0-.406-.906 1.367 1.367 0 0 0-.906-.344Zm0-7h-17.75c-.333 0-.625.115-.876.344-.25.23-.376.531-.376.906 0 .333.115.635.344.906.23.27.532.406.906.406h17.75c.334 0 .635-.125.906-.376.27-.25.406-.563.406-.938 0-.292-.135-.573-.406-.844-.27-.27-.572-.406-.906-.406l.002.002Zm0-7h-17.75c-.333 0-.625.115-.876.344-.25.23-.376.552-.376.968 0 .375.115.677.344.906.23.23.532.344.906.344h17.75c.334 0 .635-.115.906-.344.27-.23.406-.531.406-.906 0-.417-.135-.74-.406-.968a1.375 1.375 0 0 0-.904-.344ZM49.56 68.188a1.035 1.035 0 0 0-.406-.344 1.168 1.168 0 0 0-.468-.094 1.35 1.35 0 0 0-.532.094 1.017 1.017 0 0 0-.406.344c-.125.125-.22.25-.282.376a1.125 1.125 0 0 0-.094.5c0 .167.032.323.094.468.063.145.157.28.282.406.126.125.26.22.406.282.145.063.323.094.532.094.167 0 .323-.031.468-.094a1.307 1.307 0 0 0 .688-.72c.063-.167.094-.313.094-.438 0-.208-.031-.375-.094-.5a1.467 1.467 0 0 0-.282-.374Zm0 6.938a1.307 1.307 0 0 0-.406-.282 1.168 1.168 0 0 0-.468-.094 1.35 1.35 0 0 0-.532.094 1.277 1.277 0 0 0-.406.282c-.124.125-.218.26-.282.406a1.297 1.297 0 0 0-.094.532c0 .167.032.323.094.468.063.145.157.28.282.406.126.125.26.22.406.282.145.063.323.094.532.094.167 0 .323-.031.468-.094.145-.063.28-.157.406-.282.126-.125.22-.26.282-.406.063-.145.094-.301.094-.468a1.35 1.35 0 0 0-.094-.532 1.277 1.277 0 0 0-.282-.406Zm-.874 6.624a1.35 1.35 0 0 0-.532.094 1.277 1.277 0 0 0-.406.282 1.255 1.255 0 0 0-.282.438 1.213 1.213 0 0 0-.094.438c0 .208.032.375.094.5.063.125.157.25.282.376.126.167.26.281.406.344.145.063.323.094.532.094.167 0 .323-.031.468-.094.145-.063.28-.177.406-.344.126-.125.22-.25.282-.376.063-.125.094-.292.094-.5 0-.167-.031-.323-.094-.468a1.307 1.307 0 0 0-.282-.406 1.307 1.307 0 0 0-.406-.282 1.17 1.17 0 0 0-.468-.096Zm23.062-14h-17.75a1.2 1.2 0 0 0-.876.376c-.25.25-.376.563-.376.938 0 .292.115.573.344.844.23.27.532.406.906.406h17.75c.334 0 .635-.115.906-.344.27-.23.406-.531.406-.906s-.135-.687-.406-.938c-.27-.25-.57-.376-.904-.376Zm28.188-17.5a4.95 4.95 0 0 0-1.938-.688 4.66 4.66 0 0 0-2 .188 6.21 6.21 0 0 0-1.844.938c-.563.416-.99.916-1.282 1.5l-15.876 27.25c-.084.084-.126.157-.126.218v.282l-1.188 9.938c0 .25.042.49.126.718.084.228.25.405.5.532.167.084.292.126.376.126h.312l.376-.062c.25-.041.376-.104.376-.188l8-5.938a.788.788 0 0 1 .156-.218.9.9 0 0 1 .218-.156l15.75-27.312c.708-1.208.864-2.51.468-3.906-.396-1.396-1.198-2.469-2.406-3.218l.002-.004ZM79.123 82.126l3.688 2.062-4.312 3.126.624-5.188Zm5.5.25-4.876-2.688L92.31 57.876l4.876 2.812-12.562 21.688ZM99.685 56.25l-1.25 2.126-4.812-2.812 1.25-2.126c.208-.333.458-.615.75-.844.292-.23.605-.365.938-.406a3.614 3.614 0 0 1 1.032-.094c.313.021.636.136.968.344.333.167.615.396.844.688.23.292.365.605.406.938.125.375.188.75.188 1.126 0 .376-.104.73-.312 1.062l-.002-.002Z"/></g><defs><clipPath id="a"><path fill="#fff" d="M38.497 34h64v64h-64z"/></clipPath></defs></svg>