<svg width="32" height="32" viewBox="0 0 32 32" fill="none" xmlns="http://www.w3.org/2000/svg">
<g clip-path="url(#clip0_148_1412)">
<path d="M15.9377 6.375C15.0003 6.375 14.1253 6.552 13.3127 6.906C12.5 7.26 11.7917 7.73933 11.1877 8.344C10.5837 8.94867 10.1043 9.657 9.74967 10.469C9.395 11.281 9.218 12.1457 9.21867 13.063C9.21933 13.9803 9.39633 14.845 9.74967 15.657C10.103 16.469 10.5823 17.1827 11.1877 17.798C11.793 18.4133 12.5013 18.8873 13.3127 19.22C14.1253 19.574 15.0003 19.751 15.9377 19.751C16.8543 19.751 17.719 19.5843 18.5317 19.251C19.3443 18.897 20.0527 18.4127 20.6567 17.798C21.2607 17.1833 21.74 16.4697 22.0947 15.657C22.4493 14.8443 22.6263 13.9797 22.6257 13.063C22.625 12.1463 22.448 11.2817 22.0947 10.469C21.7413 9.65633 21.262 8.948 20.6567 8.344C20.0513 7.74 19.343 7.26067 18.5317 6.906C17.7203 6.55133 16.8557 6.37433 15.9377 6.375ZM15.9377 18.157C14.521 18.157 13.318 17.657 12.3287 16.657C11.3393 15.657 10.8447 14.459 10.8447 13.063C10.8447 11.667 11.3393 10.469 12.3287 9.469C13.318 8.469 14.521 7.969 15.9377 7.969C17.3337 7.969 18.5263 8.469 19.5157 9.469C20.505 10.469 20.9997 11.667 20.9997 13.063C20.9997 14.459 20.505 15.657 19.5157 16.657C18.5263 17.657 17.3337 18.157 15.9377 18.157ZM15.9377 0H15.4687C13.8647 0.0626667 12.3437 0.396 10.9057 1C9.46833 1.62533 8.19233 2.45867 7.07767 3.5C5.963 4.54133 5.05167 5.76 4.34367 7.156C3.63567 8.552 3.20867 10.052 3.06267 11.656C3 12.2813 2.98433 12.9063 3.01567 13.531C3.047 14.1557 3.11467 14.76 3.21867 15.344L3.24967 15.453C3.24967 15.453 3.27067 15.5623 3.31267 15.781C3.41667 16.2183 3.54167 16.6507 3.68767 17.078C3.83367 17.5053 4.00033 17.9167 4.18767 18.312C4.521 19.104 4.95867 19.9893 5.50067 20.968C6.06333 21.968 6.76633 23.0307 7.60967 24.156C8.453 25.2813 9.45833 26.469 10.6257 27.719C11.793 28.969 13.168 30.2503 14.7507 31.563C14.9173 31.709 15.105 31.8183 15.3137 31.891C15.5223 31.9637 15.7307 32 15.9387 32C16.168 32 16.3817 31.9637 16.5797 31.891C16.7777 31.8183 16.96 31.709 17.1267 31.563C18.71 30.2503 20.085 28.969 21.2517 27.719C22.439 26.469 23.4493 25.2813 24.2827 24.156C25.116 23.0307 25.814 21.9787 26.3767 21C26.9187 20.0207 27.3563 19.1353 27.6897 18.344C27.877 17.9273 28.0437 17.5053 28.1897 17.078C28.3357 16.6507 28.4607 16.2183 28.5647 15.781C28.5853 15.6977 28.601 15.6247 28.6117 15.562C28.6223 15.4993 28.638 15.4367 28.6587 15.374C28.7213 14.9573 28.7733 14.546 28.8147 14.14C28.856 13.734 28.877 13.3227 28.8777 12.906C28.8777 11.1353 28.534 9.46867 27.8467 7.906C27.1593 6.32267 26.2323 4.94767 25.0657 3.781C23.899 2.61433 22.5343 1.68733 20.9717 1C19.3883 0.333333 17.7113 0 15.9407 0H15.9377ZM27.0317 15.094L27.0157 15.188C27.0157 15.188 27 15.261 26.9687 15.407C26.8853 15.803 26.781 16.1883 26.6557 16.563C26.5303 16.9377 26.3843 17.3127 26.2177 17.688C25.8843 18.438 25.4573 19.2817 24.9367 20.219C24.416 21.1563 23.7547 22.1617 22.9527 23.235C22.1507 24.3083 21.187 25.449 20.0617 26.657C18.9363 27.8443 17.6133 29.063 16.0927 30.313C16.072 30.3337 16.046 30.3493 16.0147 30.36C15.9833 30.3707 15.9573 30.376 15.9367 30.376C15.916 30.376 15.89 30.3707 15.8587 30.36C15.8273 30.3493 15.8013 30.3337 15.7807 30.313C14.26 29.063 12.937 27.8443 11.8117 26.657C10.6863 25.4483 9.71767 24.3077 8.90567 23.235C8.09367 22.1623 7.427 21.157 6.90567 20.219C6.385 19.2603 5.96833 18.406 5.65567 17.656C5.489 17.302 5.343 16.9373 5.21767 16.562C5.09233 16.1867 4.97767 15.8013 4.87367 15.406C4.853 15.3227 4.83733 15.255 4.82667 15.203L4.81067 15.125V15.062C4.70667 14.5413 4.644 14.005 4.62267 13.453C4.60133 12.901 4.61167 12.354 4.65367 11.812C4.79967 10.416 5.17467 9.10333 5.77867 7.874C6.404 6.64467 7.201 5.577 8.16967 4.671C9.13833 3.765 10.258 3.041 11.5287 2.499C12.7787 1.957 14.112 1.655 15.5287 1.593C17.1327 1.551 18.643 1.81133 20.0597 2.374C21.497 2.95733 22.747 3.76467 23.8097 4.796C24.8723 5.82733 25.7057 7.041 26.3097 8.437C26.935 9.833 27.2477 11.333 27.2477 12.937C27.2477 13.291 27.232 13.6453 27.2007 14C27.1693 14.3547 27.112 14.7193 27.0287 15.094H27.0317Z" fill="#082D53"/>
</g>
<defs>
<clipPath id="clip0_148_1412">
<rect width="32" height="32" fill="white"/>
</clipPath>
</defs>
</svg>
