<svg width="32" height="32" viewBox="0 0 32 32" fill="none" xmlns="http://www.w3.org/2000/svg">
<path d="M30.7505 11.7808L16.3445 1.21777C16.2191 1.13444 16.0838 1.09277 15.9385 1.09277C15.7931 1.09277 15.6681 1.13444 15.5635 1.21777L1.00048 11.8428C0.896477 11.9261 0.818477 12.0198 0.766477 12.1238C0.714477 12.2278 0.688477 12.3321 0.688477 12.4368V31.0618C0.688477 31.2491 0.756143 31.4054 0.891477 31.5308C1.02681 31.6561 1.17781 31.7188 1.34448 31.7188H30.5945C30.7818 31.7188 30.9381 31.6614 31.0635 31.5468C31.1888 31.4321 31.2721 31.2914 31.3135 31.1248V12.6558C31.3135 12.4891 31.2771 12.3381 31.2045 12.2028C31.1318 12.0674 30.9798 11.9268 30.7505 11.7808ZM3.21948 30.4058L13.7825 22.2498L15.5955 23.5628C15.6995 23.6881 15.8191 23.7454 15.9545 23.7348C16.0898 23.7241 16.2305 23.6668 16.3765 23.5628L18.1265 22.2818L28.5955 30.4068H3.22048L3.21948 30.4058ZM2.00048 13.5628L12.7195 21.4688L2.00048 29.7818V13.5628ZM19.1565 21.5308L30.0005 13.5618V29.9368L19.1565 21.5308ZM15.9695 2.53077L29.3755 12.4058L15.9695 22.2808L2.56348 12.3748L15.9695 2.53077Z" fill="#082D53"/>
</svg>
