<svg width="132" height="143" fill="none" xmlns="http://www.w3.org/2000/svg"><path fill-rule="evenodd" clip-rule="evenodd" d="M65.721 3C33.782 3 7.398 26.416 3.121 56.809H.09C4.39 24.73 32.149 0 65.722 0c19.705 0 37.407 8.52 49.538 22.043h-4.003v.11C99.76 10.347 83.612 3 65.721 3Zm53.06 28.525a61.71 61.71 0 0 1 9.297 23.703h3.041a64.652 64.652 0 0 0-8.782-23.703h-3.556ZM.323 75.772h3.04a61.505 61.505 0 0 0 2.93 11.061H3.104A64.482 64.482 0 0 1 .323 75.772Zm7.842 22.123C19.563 117.673 41.075 131 65.72 131c31.9 0 58.55-22.326 64.814-52.068h-3.07C121.25 106.985 95.978 128 65.721 128c-22.922 0-42.983-12.06-54.064-30.105H8.165Z" fill="#F7D473"/><g clip-path="url(#a)"><path d="M45.458 49.939h14.05v2.188h-14.05v-2.188Zm0 4.624H55.5v2.126H45.458v-2.126Zm0 7h14.05v2.125h-14.05v-2.126Zm0 4.687H55.5v2.188H45.458V66.25Zm0 7h14.05v2.187h-14.05V73.25Zm0 4.75h7.959v2.187h-7.96V78Zm54.914 11.999-10.578-12.5-1.976 2.25-4.22-4.938c.962-1.333 1.728-2.843 2.297-4.531.57-1.688.855-3.49.855-5.406 0-1.916-.285-3.728-.855-5.438-.57-1.709-1.362-3.23-2.377-4.561a14.717 14.717 0 0 0-3.606-3.376 11.748 11.748 0 0 0-4.487-1.688V33.5H45.991l-8.494 9.937v53.185h37.928V83.747h-1.87v10.687H39.367V45.125h7.96v-9.437h26.12v14.125c-1.78.041-3.437.458-4.967 1.25a13.603 13.603 0 0 0-4.06 3.282c-1.14 1.354-2.048 2.948-2.725 4.781-.677 1.834-1.015 3.792-1.015 5.876 0 2.084.338 4.042 1.015 5.876.677 1.833 1.603 3.437 2.778 4.811a13.015 13.015 0 0 0 4.168 3.25 10.54 10.54 0 0 0 5.022 1.25c1.639 0 3.179-.333 4.62-1a13.035 13.035 0 0 0 3.874-2.75l4.273 5-1.976 2.312 10.684 12.5c.392.416.802.729 1.23.937.427.208.89.312 1.389.312s.98-.115 1.443-.344c.462-.23.854-.531 1.176-.906.747-.917 1.121-1.98 1.121-3.188 0-1.208-.374-2.228-1.121-3.061l-.004-.002ZM45.458 42.813h-4.809l4.809-5.75v5.75ZM73.77 77.875a8.888 8.888 0 0 1-4.274-1.062 11.063 11.063 0 0 1-3.552-2.782 13.425 13.425 0 0 1-2.378-4.093c-.605-1.584-.907-3.271-.907-5.062 0-1.79.302-3.478.907-5.062.57-1.584 1.363-2.959 2.378-4.125a12.13 12.13 0 0 1 3.552-2.812c1.317-.667 2.742-1 4.274-1 1.531 0 2.973.333 4.326 1a11.78 11.78 0 0 1 3.527 2.812c.997 1.166 1.798 2.541 2.403 4.125.57 1.584.855 3.272.855 5.062 0 1.79-.285 3.478-.855 5.062-.605 1.541-1.406 2.906-2.403 4.093a10.79 10.79 0 0 1-3.527 2.782 9.204 9.204 0 0 1-4.326 1.062ZM99.09 94.56a1.685 1.685 0 0 1-.642.468c-.25.104-.48.156-.694.156-.285 0-.534-.052-.748-.156a1.365 1.365 0 0 1-.536-.468L87.07 83.623l2.725-3.188 9.401 10.937c.32.5.472 1.063.455 1.688-.017.626-.204 1.126-.56 1.5ZM73.983 59.126h-.427c-2.351.084-4.319.928-5.903 2.532-1.584 1.604-2.412 2.469-2.483 2.594l1.442 1.376.722-.782 1.895-1.782c-.071.25-.125.532-.16.844a8.607 8.607 0 0 0-.053.968c0 1.584.472 2.938 1.415 4.062.944 1.124 2.092 1.686 3.446 1.688 1.39 0 2.556-.563 3.5-1.688.943-1.126 1.415-2.48 1.415-4.062 0-.333-.018-.635-.053-.906-.035-.27-.09-.572-.16-.906a15.647 15.647 0 0 1 1.87 1.688c.498.541.748.833.748.876l1.39-1.376c-.143-.125-1.024-.98-2.645-2.562-1.62-1.582-3.605-2.436-5.955-2.562l-.004-.002Zm-.213 9.436c-.855 0-1.576-.354-2.165-1.062-.588-.708-.882-1.541-.882-2.5 0-.959.285-1.781.855-2.468.57-.686 1.265-1.051 2.084-1.094h.427c.82.042 1.514.406 2.084 1.094.57.688.855 1.51.855 2.468a4.438 4.438 0 0 1-1.096 2.5c-.623.708-1.343 1.062-2.162 1.062Z" fill="#fff"/></g><circle cx="96.723" cy="123.477" r="19" fill="#F7D473"/><path d="M93.49 129v-1.218l3.892-3.696c.327-.308.57-.579.728-.812.159-.233.261-.448.308-.644a2.19 2.19 0 0 0 .084-.574c0-.448-.154-.793-.462-1.036-.308-.252-.76-.378-1.358-.378-.476 0-.91.084-1.302.252a2.636 2.636 0 0 0-.994.77l-1.274-.98c.383-.513.896-.91 1.54-1.19.653-.289 1.381-.434 2.184-.434.71 0 1.325.117 1.848.35.532.224.938.546 1.218.966.289.42.434.919.434 1.498 0 .317-.042.635-.126.952a3.356 3.356 0 0 1-.476.98c-.233.345-.574.733-1.022 1.162l-3.346 3.178-.378-.686h5.726V129H93.49Z" fill="#111"/><defs><clipPath id="a"><path fill="#fff" transform="translate(37.497 33.5)" d="M0 0h64v64H0z"/></clipPath></defs></svg>